<?xml version="1.0" encoding="utf-8"?>
<!-- Generator: Adobe Illustrator 26.1.0, SVG Export Plug-In . SVG Version: 6.00 Build 0)  -->
<svg version="1.1" id="Layer_1" xmlns="http://www.w3.org/2000/svg" xmlns:xlink="http://www.w3.org/1999/xlink" x="0px" y="0px"
	 viewBox="0 0 512 512" style="enable-background:new 0 0 512 512;" xml:space="preserve">
<style type="text/css">
	.st0{fill:none;stroke:#FFFFFF;stroke-width:28;stroke-linecap:round;stroke-linejoin:round;}
</style>
<path d="M256,512L256,512C114.61,512,0,397.39,0,256l0,0C0,114.61,114.61,0,256,0h0c141.38,0,256,114.61,256,256v0
	C512,397.39,397.39,512,256,512z"/>
<g>
	<path class="st0" d="M177.45,256c15.56-57.28,81.78-99.33,140.72-99.33S418.5,198.72,434.06,256
		c-15.56,57.45-56.95,99.33-115.89,99.33S193.01,313.45,177.45,256z"/>
	<path class="st0" d="M367.83,256v16.56"/>
	<path class="st0" d="M334.73,354.17c-44.27-57.96-44.27-138.38,0-196.35"/>
	<path class="st0" d="M185.73,233.98c0-44.2-23.51-77.81-70.69-85.59c-16.56,24.83-16.56,82.78,3.81,107.61
		c-20.53,24.83-20.53,82.78-3.81,107.61c47.18-7.78,70.69-41.39,70.69-85.59"/>
	<path class="st0" d="M243.01,177.53c-4.3-22.85-21.36-50-40.73-70.53h96.02c16.22-0.06,30.1,11.65,32.78,27.65l3.81,23.18"/>
	<path class="st0" d="M334.9,354.17l-3.81,23.18c-2.68,16-16.56,27.71-32.78,27.65h-71.19c16.04-18.19,24.82-41.64,24.67-65.89"/>
</g>
</svg>
